<?xml version="1.0" standalone="no"?>
<!DOCTYPE svg PUBLIC "-//W3C//DTD SVG 20010904//EN"
 "http://www.w3.org/TR/2001/REC-SVG-20010904/DTD/svg10.dtd">
<svg version="1.0" xmlns="http://www.w3.org/2000/svg"
 width="512.000000pt" height="512.000000pt" viewBox="0 0 512.000000 512.000000"
 preserveAspectRatio="xMidYMid meet">
<metadata>
Created by potrace 1.11, written by Peter Selinger 2001-2013
</metadata>
<g transform="translate(0.000000,512.000000) scale(0.100000,-0.100000)"
fill="#000000" stroke="none">
<path d="M681 4994 c-63 -26 -59 135 -57 -2377 1 -1525 -2 -2297 -9 -2298 -5
0 -102 -1 -215 -1 -229 -1 -252 -6 -275 -63 -15 -34 -14 -60 5 -94 27 -51
-109 -49 2443 -47 l2379 1 24 28 c33 38 38 68 20 111 -25 59 -46 64 -312 63
-129 0 -236 2 -240 5 -3 3 1 19 9 35 46 88 45 11 43 2214 -2 1141 -6 2087 -10
2104 -38 153 -184 293 -337 323 -27 5 -771 9 -1742 9 -1382 0 -1701 -2 -1726
-13z m745 -193 c9 -1 12 -502 12 -2002 0 -1966 0 -2002 19 -2028 43 -57 123
-56 166 1 20 27 20 47 20 2028 0 1817 2 2000 16 2001 9 0 564 1 1233 1 l1217
1 54 -27 c55 -26 94 -71 117 -131 9 -22 12 -561 12 -2086 0 -2027 0 -2057 -19
-2101 -24 -54 -60 -91 -116 -119 l-41 -22 -1636 1 c-899 0 -1639 1 -1645 1 -7
1 -9 746 -8 2219 1 1219 2 2227 2 2239 1 12 8 23 18 25 13 2 534 1 579 -1z"/>
<path d="M2900 4393 c-156 -18 -272 -60 -398 -146 -206 -141 -337 -378 -347
-627 -4 -119 7 -201 44 -307 160 -464 693 -680 1136 -461 33 16 85 48 115 71
483 363 430 1092 -100 1375 -135 72 -314 110 -450 95z m-35 -460 l0 -248 -248
-1 -248 -2 4 32 c19 125 127 285 246 365 79 53 179 95 236 100 7 1 10 -82 10
-246z m352 202 c122 -57 216 -141 280 -253 30 -54 73 -166 73 -192 0 -4 -112
-8 -250 -8 l-250 0 0 249 0 250 36 -5 c20 -4 70 -22 111 -41z m-352 -903 c0
-134 -3 -246 -7 -249 -5 -2 -34 3 -66 12 -152 44 -300 170 -371 317 -22 45
-43 102 -47 124 l-6 41 248 -1 249 -1 0 -243z m699 219 c-42 -193 -180 -359
-362 -435 -32 -13 -74 -27 -95 -31 l-37 -7 0 249 0 250 250 0 250 0 -6 -26z"/>
<path d="M2304 2441 c-74 -45 -59 -159 25 -180 20 -5 314 -8 664 -8 l629 2 29
33 c47 53 35 127 -26 157 -29 13 -115 15 -662 15 -600 0 -629 -1 -659 -19z"/>
<path d="M2304 1931 c-46 -28 -61 -80 -37 -129 12 -25 28 -40 50 -47 20 -7
260 -10 668 -10 l637 0 29 33 c45 50 39 113 -15 150 l-32 22 -635 0 c-607 0
-635 -1 -665 -19z"/>
<path d="M2259 1438 c-4 -8 -7 -166 -4 -184 4 -19 11 -20 105 -20 l101 1 -3
100 -3 100 -97 3 c-54 1 -99 1 -99 0z"/>
<path d="M2661 1336 l1 -102 92 1 c50 1 96 2 102 3 7 1 10 37 10 100 l-1 97
-103 2 -103 2 2 -103z"/>
<path d="M3070 1336 l0 -103 100 0 c64 0 100 4 101 11 3 37 4 164 1 179 -4 15
-17 17 -103 17 l-99 0 0 -104z"/>
<path d="M3479 1438 c-1 -4 -1 -159 0 -184 1 -19 7 -20 101 -21 l100 0 1 28
c0 16 1 47 1 69 0 22 -1 56 -1 75 l-1 35 -100 0 c-55 0 -100 -1 -101 -2z"/>
</g>
</svg>
